<svg version="1.1" xmlns="http://www.w3.org/2000/svg" width="512" height="512" fill="currentColor" >
<path d="M0 0 C1.45108658 0.00273422 1.45108658 0.00273422 2.93148804 0.00552368 C17.26440977 0.05095174 31.21023917 0.55983928 45.3125 3.3125 C46.65803955 3.55395752 46.65803955 3.55395752 48.03076172 3.80029297 C107.84088904 14.62287989 165.35495829 48.68064457 202.3125 97.3125 C202.72918945 97.85277832 203.14587891 98.39305664 203.57519531 98.94970703 C211.2584873 108.9447116 218.00092968 119.40459036 224.3125 130.3125 C224.70679199 130.98974121 225.10108398 131.66698242 225.50732422 132.36474609 C238.68961173 155.2833756 247.29510918 180.85822563 252.625 206.6875 C252.77243652 207.39817627 252.91987305 208.10885254 253.07177734 208.84106445 C256.05713787 224.48358366 256.6873098 240.11919606 256.625 256 C256.62226578 257.45108658 256.62226578 257.45108658 256.61947632 258.93148804 C256.57404826 273.26440977 256.06516072 287.21023917 253.3125 301.3125 C253.15152832 302.20952637 252.99055664 303.10655273 252.82470703 304.03076172 C242.00212011 363.84088904 207.94435543 421.35495829 159.3125 458.3125 C158.77222168 458.72918945 158.23194336 459.14587891 157.67529297 459.57519531 C147.6802884 467.2584873 137.22040964 474.00092968 126.3125 480.3125 C125.63525879 480.70679199 124.95801758 481.10108398 124.26025391 481.50732422 C101.3416244 494.68961173 75.76677437 503.29510918 49.9375 508.625 C49.22682373 508.77243652 48.51614746 508.91987305 47.78393555 509.07177734 C32.14141634 512.05713787 16.50580394 512.6873098 0.625 512.625 C-0.34239105 512.62317719 -1.3097821 512.62135437 -2.30648804 512.61947632 C-16.63940977 512.57404826 -30.58523917 512.06516072 -44.6875 509.3125 C-45.58452637 509.15152832 -46.48155273 508.99055664 -47.40576172 508.82470703 C-107.21588904 498.00212011 -164.72995829 463.94435543 -201.6875 415.3125 C-202.10418945 414.77222168 -202.52087891 414.23194336 -202.95019531 413.67529297 C-210.6334873 403.6802884 -217.37592968 393.22040964 -223.6875 382.3125 C-224.08179199 381.63525879 -224.47608398 380.95801758 -224.88232422 380.26025391 C-238.06461173 357.3416244 -246.67010918 331.76677437 -252 305.9375 C-252.14743652 305.22682373 -252.29487305 304.51614746 -252.44677734 303.78393555 C-255.43213787 288.14141634 -256.0623098 272.50580394 -256 256.625 C-255.99817719 255.65760895 -255.99635437 254.6902179 -255.99447632 253.69351196 C-255.94904826 239.36059023 -255.44016072 225.41476083 -252.6875 211.3125 C-252.44604248 209.96696045 -252.44604248 209.96696045 -252.19970703 208.59423828 C-241.37712011 148.78411096 -207.31935543 91.27004171 -158.6875 54.3125 C-158.14722168 53.89581055 -157.60694336 53.47912109 -157.05029297 53.04980469 C-147.0552884 45.3665127 -136.59540964 38.62407032 -125.6875 32.3125 C-125.01025879 31.91820801 -124.33301758 31.52391602 -123.63525391 31.11767578 C-100.7166244 17.93538827 -75.14177437 9.32989082 -49.3125 4 C-48.60182373 3.85256348 -47.89114746 3.70512695 -47.15893555 3.55322266 C-31.51641634 0.56786213 -15.88080394 -0.0623098 0 0 Z M-157.9375 174.15625 C-162.33814897 178.7698336 -164.58642654 183.20891772 -164.74609375 189.69140625 C-164.38118356 197.40160544 -161.47954073 202.93515718 -155.875 208.1875 C-148.82675448 212.88633035 -142.71786579 212.52106935 -134.6875 211.3125 C-130.84472062 210.48801149 -127.052389 209.49224595 -123.25 208.5 C-114.23834113 206.25214498 -105.25057412 204.42436473 -96.0625 203.0625 C-95.06549072 202.91192139 -94.06848145 202.76134277 -93.04125977 202.60620117 C-73.84435254 199.89943269 -54.68223078 198.93332665 -35.3125 199 C-34.2306543 199.00149048 -33.14880859 199.00298096 -32.03417969 199.0045166 C-13.4197486 199.0503279 4.84384708 199.94361128 23.3125 202.3125 C24.43833496 202.45171875 25.56416992 202.5909375 26.72412109 202.734375 C67.2906096 207.89098028 105.06443117 219.65646735 141.3125 238.3125 C148.12466332 241.79603955 153.54637694 243.41360319 161.0625 241.125 C168.82938888 238.11279788 171.70947852 233.51854295 175.3125 226.3125 C176.01215542 218.8571554 175.9394381 212.4181091 171.3125 206.3125 C129.89454866 169.08406461 53.18616861 159.07381738 0.3125 155.3125 C-0.47366699 155.25465332 -1.25983398 155.19680664 -2.06982422 155.13720703 C-42.09453544 152.31360902 -124.48203282 146.74135328 -157.9375 174.15625 Z M-128.4375 248.375 C-129.28900635 248.60807861 -130.1405127 248.84115723 -131.01782227 249.08129883 C-136.45103648 250.67203272 -141.37332642 252.5354917 -145.11328125 257.0234375 C-148.15214601 262.72632907 -149.37069108 266.65649395 -147.5 272.875 C-145.33675865 278.57983116 -142.93224596 281.96848576 -137.4375 284.8125 C-130.05008586 287.46081828 -123.02036352 285.09419169 -115.6875 283.3125 C-112.00425374 282.45980705 -108.31584843 281.6316178 -104.625 280.8125 C-103.65747803 280.59698486 -102.68995605 280.38146973 -101.69311523 280.15942383 C-47.5280751 268.4200295 10.87297825 273.0874864 63.3125 290.3125 C64.12509277 290.57611328 64.93768555 290.83972656 65.77490234 291.11132812 C83.17313793 296.85199052 99.9767258 304.88882269 115.76660156 314.14770508 C120.8202408 316.45983711 126.20378847 316.40256768 131.41796875 314.57421875 C136.37337682 312.00670455 139.26247472 308.51255297 141.625 303.5625 C142.80047302 298.00571844 142.24770258 293.3455491 139.875 288.1875 C110.37399382 255.08881014 45.70520453 244.72773526 4.3125 239.3125 C3.45994629 239.19390625 2.60739258 239.0753125 1.72900391 238.953125 C-41.05951741 233.17112493 -86.96872127 236.89386875 -128.4375 248.375 Z M-117.9375 323.75 C-118.91928223 323.93087158 -119.90106445 324.11174316 -120.91259766 324.2980957 C-127.55008591 325.66101652 -133.02306021 327.52928991 -137.1015625 333.3203125 C-138.6681621 338.64675114 -138.40868898 343.72588425 -136.125 348.75 C-133.22628372 351.7973684 -130.8062175 353.56173105 -126.6875 354.3125 C-118.23452052 354.20845092 -109.9570117 352.53646915 -101.6875 350.9375 C-65.55004938 344.34775765 -27.04547011 341.60323192 9.3125 348.3125 C10.25754395 348.47347168 11.20258789 348.63444336 12.17626953 348.80029297 C39.18651782 353.45014719 66.42106564 362.28745178 89.5703125 377.25390625 C93.45857656 379.61650616 96.86657466 379.74980413 101.3125 379.3125 C105.96744099 377.40781772 108.74313638 375.24418593 111.375 370.9375 C112.68488778 365.87260057 112.26181904 362.35353594 110.0625 357.625 C91.05972212 332.51418638 39.33305133 323.12520192 10.3125 318.3125 C9.25208496 318.13605957 8.19166992 317.95961914 7.09912109 317.77783203 C-34.22406465 311.24971329 -77.17542905 315.81443877 -117.9375 323.75 Z " fill="#000000" transform="translate(255.6875,-0.3125)"/>
</svg>
