<svg version="1.1" xmlns="http://www.w3.org/2000/svg" width="512" height="512">
<path d="M0 0 C1.01790619 0.00215515 2.03581238 0.0043103 3.08456421 0.00653076 C17.69363523 0.05620146 32.02575853 0.30709809 46.375 3.3125 C47.34985352 3.51117676 48.32470703 3.70985352 49.32910156 3.91455078 C97.7109774 14.03517194 141.69928269 35.9516877 177.375 70.3125 C178.3640332 71.26068604 178.3640332 71.26068604 179.37304688 72.22802734 C188.86130305 81.37247479 197.6012044 90.66984009 205.375 101.3125 C206.23306152 102.46355017 207.09113451 103.61459177 207.94921875 104.765625 C213.98736829 112.95680614 219.34595521 121.47054105 224.375 130.3125 C224.73948242 130.94430176 225.10396484 131.57610352 225.47949219 132.22705078 C247.08534998 169.97532572 256.85198095 212.74189997 256.6875 255.9375 C256.68534485 256.95540619 256.6831897 257.97331238 256.68096924 259.02206421 C256.63129854 273.63113523 256.38040191 287.96325853 253.375 302.3125 C253.07698486 303.77478027 253.07698486 303.77478027 252.77294922 305.26660156 C242.65232806 353.6484774 220.7358123 397.63678269 186.375 433.3125 C185.74287598 433.97185547 185.11075195 434.63121094 184.45947266 435.31054688 C175.31502521 444.79880305 166.01765991 453.5387044 155.375 461.3125 C154.22394983 462.17056152 153.07290823 463.02863451 151.921875 463.88671875 C143.73224019 469.92427396 135.22961724 475.30707302 126.375 480.3125 C125.66778809 480.7146875 124.96057617 481.116875 124.23193359 481.53125 C101.09654164 494.5566741 75.92537591 503.30551461 49.9375 508.625 C49.21860596 508.77235596 48.49971191 508.91971191 47.7590332 509.0715332 C33.08339502 511.86090125 18.55831162 512.66142619 3.64770508 512.62817383 C0.70811513 512.6250221 -2.2304558 512.64854926 -5.16992188 512.67382812 C-18.54306192 512.71848737 -31.43916711 511.51301542 -44.625 509.3125 C-46.33055054 509.03031616 -46.33055054 509.03031616 -48.07055664 508.74243164 C-91.33802759 500.97044532 -132.38793216 480.98345309 -165.625 452.3125 C-166.37007813 451.67828125 -167.11515625 451.0440625 -167.8828125 450.390625 C-181.38779833 438.57948485 -194.05918743 425.82889772 -204.625 411.3125 C-205.48149066 410.16255169 -206.33826433 409.01281411 -207.1953125 407.86328125 C-213.23534209 399.67315742 -218.61867614 391.16870382 -223.625 382.3125 C-224.0271875 381.60528809 -224.429375 380.89807617 -224.84375 380.16943359 C-237.8691741 357.03404164 -246.61801461 331.86287591 -251.9375 305.875 C-252.08485596 305.15610596 -252.23221191 304.43721191 -252.3840332 303.6965332 C-255.35789088 288.05024391 -255.99800362 272.57681954 -255.9375 256.6875 C-255.93534485 255.66959381 -255.9331897 254.65168762 -255.93096924 253.60293579 C-255.88129854 238.99386477 -255.63040191 224.66174147 -252.625 210.3125 C-252.42632324 209.33764648 -252.22764648 208.36279297 -252.02294922 207.35839844 C-241.90232806 158.9765226 -219.9858123 114.98821731 -185.625 79.3125 C-184.99287598 78.65314453 -184.36075195 77.99378906 -183.70947266 77.31445312 C-174.56502521 67.82619695 -165.26765991 59.0862956 -154.625 51.3125 C-153.47394983 50.45443848 -152.32290823 49.59636549 -151.171875 48.73828125 C-142.98224019 42.70072604 -134.47961724 37.31792698 -125.625 32.3125 C-124.91778809 31.9103125 -124.21057617 31.508125 -123.48193359 31.09375 C-100.34654164 18.0683259 -75.17537591 9.31948539 -49.1875 4 C-48.46860596 3.85264404 -47.74971191 3.70528809 -47.0090332 3.5534668 C-31.36274391 0.57960912 -15.88931954 -0.06050362 0 0 Z M-155.05078125 95.515625 C-164.00787197 104.23121406 -172.4017758 113.10174383 -179.625 123.3125 C-180.10630371 123.99248047 -180.58760742 124.67246094 -181.08349609 125.37304688 C-215.42583192 174.42408284 -230.84760474 234.96197902 -220.53222656 294.43212891 C-211.87476924 338.77078176 -191.9175104 378.68155 -160.625 411.3125 C-159.86896484 412.10938232 -159.86896484 412.10938232 -159.09765625 412.92236328 C-151.18560122 421.22656817 -142.82415265 428.47414637 -133.625 435.3125 C-132.788479 435.94816895 -132.788479 435.94816895 -131.93505859 436.59667969 C-123.01309135 443.37081414 -113.62806312 448.95832024 -103.73242188 454.19580078 C-101.86070826 455.18760083 -99.99982808 456.19978557 -98.140625 457.21484375 C-49.19324054 483.03517455 11.47410857 486.65309966 64.08203125 470.99609375 C87.94432126 463.54818017 110.08585114 452.94622456 130.375 438.3125 C130.97634766 437.8808252 131.57769531 437.44915039 132.19726562 437.00439453 C140.84624371 430.73315079 148.679575 423.70238181 156.375 416.3125 C156.88949707 415.82523437 157.40399414 415.33796875 157.93408203 414.8359375 C165.91864915 407.254273 172.80430636 399.13822459 179.375 390.3125 C180.02082031 389.45785156 180.02082031 389.45785156 180.6796875 388.5859375 C187.44514523 379.60632997 193.10285384 370.23369855 198.375 360.3125 C198.71772949 359.68150391 199.06045898 359.05050781 199.41357422 358.40039062 C209.62942475 339.52380708 215.89314281 319.23873832 220.375 298.3125 C220.55434082 297.51247559 220.73368164 296.71245117 220.91845703 295.88818359 C232.61439332 241.58977034 218.06256963 181.36665206 188.59765625 135.17578125 C156.40336764 86.11291969 106.15145111 49.90088488 48.45996094 37.69580078 C-25.36115917 22.97244159 -100.44370334 43.22902723 -155.05078125 95.515625 Z " fill="#FFFFFF" transform="translate(255.625,-0.3125)"/>
<path d="M0 0 C4.97498002 2.30981215 7.32126061 5.27820244 10 10 C10.50780869 13.44009209 10.50780869 13.44009209 10.51898193 17.28927612 C10.52648319 18.00085723 10.53398444 18.71243834 10.541713 19.44558251 C10.56193199 21.81802599 10.55389943 24.18950844 10.54589844 26.56201172 C10.55463665 28.26731814 10.5651233 29.97261636 10.57722473 31.67790222 C10.6050751 36.29936566 10.60848963 40.92056144 10.60750484 45.54209661 C10.61063477 50.37481519 10.63625465 55.20741336 10.65948486 60.04006958 C10.70004227 69.18781252 10.72038498 78.33548419 10.73345876 87.48330319 C10.74932966 97.89926941 10.78774569 108.31511434 10.82805204 118.7310102 C10.91044746 140.15396679 10.96454183 161.57691768 11 183 C11.81130875 182.17980881 12.62261749 181.35961761 13.45851135 180.51457214 C21.11290135 172.77902696 28.77788351 165.05411747 36.45330906 157.33944225 C40.39880165 153.37309255 44.34049408 149.40311571 48.27368164 145.42456055 C52.07094231 141.58377677 55.87794627 137.75290251 59.69184685 133.92864418 C61.14377616 132.46933524 62.59218554 131.00651525 64.03695869 129.54012108 C66.06428568 127.4836758 68.10387332 125.44017443 70.14672852 123.39916992 C70.73871033 122.79280701 71.33069214 122.18644409 71.94061279 121.56170654 C76.24262724 117.30156309 80.41765695 114.28932286 86.66015625 113.78515625 C93.14553206 114.53387443 97.43149999 115.98865516 101.8125 121.125 C104.18357136 126.86548855 104.9121576 131.75846141 102.54064941 137.58621216 C99.69589409 143.08676633 95.44323245 147.10047318 91.07226562 151.41357422 C90.17102463 152.31861191 89.26978363 153.2236496 88.3412323 154.15611267 C85.88546892 156.62150926 83.41749013 159.07432355 80.94674492 161.52469397 C78.35685101 164.09693285 75.77759489 166.67979962 73.19689941 169.26126099 C68.86608503 173.59020704 64.52762242 177.911364 60.18408203 182.22753906 C55.16497395 187.21514179 50.15645118 192.21317605 45.15380526 197.21728694 C39.81890892 202.5535344 34.47642835 207.88213852 29.13168144 213.20851755 C27.59469669 214.74124343 26.05913468 216.27538251 24.52388 217.80984116 C21.66446854 220.66686922 18.79662573 223.51528434 15.92773438 226.36279297 C15.07878098 227.21265274 14.22982758 228.06251251 13.35514832 228.93812561 C12.57291397 229.71182999 11.79067963 230.48553436 10.98474121 231.28268433 C10.30780968 231.95626417 9.63087814 232.62984402 8.93343353 233.32383537 C4.24008426 237.39267245 0.07545068 237.36538699 -5.875 237.375 C-6.66519531 237.39949219 -7.45539063 237.42398438 -8.26953125 237.44921875 C-9.04425781 237.45308594 -9.81898438 237.45695313 -10.6171875 237.4609375 C-11.31440918 237.46915527 -12.01163086 237.47737305 -12.72998047 237.48583984 C-19.83085131 235.96607936 -25.17767087 229.11818308 -30.07885742 224.21166992 C-30.97224319 223.32500137 -31.86562897 222.43833282 -32.78608704 221.52479553 C-35.22460179 219.10386795 -37.65667018 216.67656454 -40.08704543 214.24746871 C-41.6079786 212.72796126 -43.13032877 211.20988851 -44.65319252 209.69231606 C-49.97201504 204.3919661 -55.28567679 199.08650543 -60.59448242 193.77612305 C-65.53415148 188.8352517 -70.48487595 183.90565389 -75.44090003 178.98119277 C-79.70467209 174.7436053 -83.96066353 170.4983084 -88.21072465 166.24697 C-90.74526731 163.71191858 -93.28278559 161.18003704 -95.8281765 158.65587425 C-98.66651924 155.84056252 -101.4885113 153.00938734 -104.30932617 150.17651367 C-105.14938202 149.34769684 -105.98943787 148.51888 -106.85494995 147.66494751 C-111.73087974 142.73586486 -115.63419737 138.52930163 -116.21484375 131.33984375 C-115.46612557 124.85446794 -114.01134484 120.56850001 -108.875 116.1875 C-104.26393616 114.28293015 -99.05409819 112.84021431 -94.21894836 114.67634964 C-88.95715013 117.19409235 -85.18024939 120.26493168 -81.125 124.42089844 C-80.4898497 125.05546463 -79.8546994 125.69003082 -79.20030212 126.34382629 C-77.12389879 128.42299433 -75.06198997 130.51592044 -73 132.609375 C-71.55499539 134.06184769 -70.10909933 135.513434 -68.66235352 136.96417236 C-64.87235104 140.76938625 -61.09451971 144.58646126 -57.31915283 148.40618896 C-53.45837157 152.30801967 -49.58612349 156.19843407 -45.71484375 160.08984375 C-38.13200508 167.715474 -30.56198384 175.35369243 -23 183 C-22.99853344 182.11393507 -22.99706688 181.22787014 -22.99555588 180.31495476 C-22.95850759 158.75710011 -22.89951911 137.19940293 -22.81609726 115.64167595 C-22.7762844 105.21651831 -22.74390331 94.7914364 -22.72900391 84.36621094 C-22.71599905 75.27979795 -22.68906419 66.19355145 -22.64538693 57.10723221 C-22.62274591 52.29586396 -22.6070909 47.48470124 -22.60811615 42.67327499 C-22.6088612 38.14402445 -22.59097283 33.6152287 -22.55883217 29.08609581 C-22.55031783 27.42447801 -22.54859366 25.76280929 -22.55419731 24.10117912 C-22.56083597 21.83001367 -22.54292227 19.56029584 -22.51898193 17.28927612 C-22.51345118 15.38393003 -22.51345118 15.38393003 -22.50780869 13.44009209 C-21.73934855 8.23424642 -19.24693045 5.18458392 -15.5 1.625 C-10.33499991 -0.77303575 -5.5997712 -0.75381535 0 0 Z " fill="#FFFFFF" transform="translate(262,128)"/>
</svg>
