<svg version="1.1" xmlns="http://www.w3.org/2000/svg" width="512" height="512" >
<path d="M0 0 C1.01790619 0.00215515 2.03581238 0.0043103 3.08456421 0.00653076 C17.69363523 0.05620146 32.02575853 0.30709809 46.375 3.3125 C47.34985352 3.51117676 48.32470703 3.70985352 49.32910156 3.91455078 C98.33696698 14.16611774 142.34114199 36.50532652 178.375 71.3125 C178.99584473 71.91143066 179.61668945 72.51036133 180.25634766 73.12744141 C188.15750259 80.79126503 195.70266955 88.53248394 202.375 97.3125 C202.79168945 97.85277832 203.20837891 98.39305664 203.63769531 98.94970703 C228.13584707 130.8187469 244.62689938 167.37064783 252.6875 206.75 C252.83485596 207.46889404 252.98221191 208.18778809 253.1340332 208.9284668 C256.10789088 224.57475609 256.74800362 240.04818046 256.6875 255.9375 C256.68534485 256.95540619 256.6831897 257.97331238 256.68096924 259.02206421 C256.63129854 273.63113523 256.38040191 287.96325853 253.375 302.3125 C253.07698486 303.77478027 253.07698486 303.77478027 252.77294922 305.26660156 C242.52138226 354.27446698 220.18217348 398.27864199 185.375 434.3125 C184.77606934 434.93334473 184.17713867 435.55418945 183.56005859 436.19384766 C175.89623497 444.09500259 168.15501606 451.64016955 159.375 458.3125 C158.83472168 458.72918945 158.29444336 459.14587891 157.73779297 459.57519531 C123.10615677 486.19699135 82.6106052 503.76676591 39.375 510.3125 C38.25689941 510.48982666 37.13879883 510.66715332 35.98681641 510.84985352 C25.22545702 512.39416151 14.5855899 512.65229671 3.72314453 512.62817383 C0.77468385 512.62502635 -2.17275697 512.64852578 -5.12109375 512.67382812 C-18.51105903 512.71844438 -31.42266733 511.51675057 -44.625 509.3125 C-45.76195312 509.12437744 -46.89890625 508.93625488 -48.0703125 508.74243164 C-50.66610846 508.27619865 -53.2376671 507.75746002 -55.8125 507.1875 C-57.20142456 506.88054199 -57.20142456 506.88054199 -58.6184082 506.56738281 C-114.14757064 493.65555169 -166.96198961 460.92501728 -201.625 415.3125 C-202.04168945 414.77222168 -202.45837891 414.23194336 -202.88769531 413.67529297 C-227.38584707 381.8062531 -243.87689938 345.25435217 -251.9375 305.875 C-252.08485596 305.15610596 -252.23221191 304.43721191 -252.3840332 303.6965332 C-255.35789088 288.05024391 -255.99800362 272.57681954 -255.9375 256.6875 C-255.93534485 255.66959381 -255.9331897 254.65168762 -255.93096924 253.60293579 C-255.88129854 238.99386477 -255.63040191 224.66174147 -252.625 210.3125 C-252.42632324 209.33764648 -252.22764648 208.36279297 -252.02294922 207.35839844 C-241.77138226 158.35053302 -219.43217348 114.34635801 -184.625 78.3125 C-184.02606934 77.69165527 -183.42713867 77.07081055 -182.81005859 76.43115234 C-175.14623497 68.52999741 -167.40501606 60.98483045 -158.625 54.3125 C-158.08472168 53.89581055 -157.54444336 53.47912109 -156.98779297 53.04980469 C-125.1187531 28.55165293 -88.56685217 12.06060062 -49.1875 4 C-48.46860596 3.85264404 -47.74971191 3.70528809 -47.0090332 3.5534668 C-31.36274391 0.57960912 -15.88931954 -0.06050362 0 0 Z M-145.625 146.3125 C-147.2134971 146.66686651 -148.80203328 147.02105789 -150.390625 147.375 C-159.57331293 149.50780984 -167.31752331 152.32888476 -172.625 160.5 C-176.25131256 166.88382108 -176.33116113 173.10308752 -175.625 180.3125 C-173.70951859 186.88242222 -170.35438399 191.41859394 -164.66796875 195.1953125 C-154.88114013 200.54719201 -146.26104007 197.87008895 -136.1875 195.125 C-125.64253882 192.37859679 -115.1388489 190.17819446 -104.375 188.5 C-103.16013916 188.30575439 -101.94527832 188.11150879 -100.69360352 187.91137695 C-79.95287712 184.80293004 -59.19885852 183.9303034 -38.25 184 C-37.07423401 184.00215515 -35.89846802 184.0043103 -34.68707275 184.00653076 C28.81953866 184.19236395 92.34689385 195.13130138 148.76269531 225.36450195 C149.69436523 225.86167725 150.62603516 226.35885254 151.5859375 226.87109375 C152.82802979 227.54096313 152.82802979 227.54096313 154.09521484 228.22436523 C159.87097354 230.98111791 165.66945095 230.96476837 171.8125 229.3125 C177.86763915 227.10780831 182.21393939 222.86592181 185.5390625 217.3984375 C188.44329091 210.80285335 188.27807437 203.4466993 186.3125 196.625 C180.25619512 186.2706723 171.7956737 181.59995462 161.375 176.3125 C160.58786621 175.90741211 159.80073242 175.50232422 158.98974609 175.08496094 C144.89463715 167.8897327 130.3786537 162.30736008 115.375 157.3125 C114.42931152 156.99684082 113.48362305 156.68118164 112.50927734 156.35595703 C64.61808281 140.59419155 13.92925099 134.06469052 -36.375 134.125 C-37.78330582 134.12590637 -37.78330582 134.12590637 -39.22006226 134.12683105 C-75.29769512 134.18947843 -110.47033453 138.07933816 -145.625 146.3125 Z M-133.9375 233.3125 C-134.90381348 233.53719971 -135.87012695 233.76189941 -136.86572266 233.9934082 C-144.91970892 236.0280166 -151.96032966 239.1360841 -156.625 246.3125 C-159.29858598 250.99127546 -159.25674225 256.07463702 -158.625 261.3125 C-156.79975644 267.50958441 -152.93539332 271.75170262 -147.625 275.3125 C-139.58915131 277.99111623 -131.61479565 276.27385834 -123.6875 274.0625 C-41.12725603 251.04987691 47.4455208 266.40874595 122.02514648 306.13256836 C127.37848303 308.82063854 132.49022302 309.01995953 138.375 308.3125 C144.05027695 306.1325923 147.47213237 302.65377643 150.375 297.3125 C152.32158589 291.47274232 152.40007879 284.7467082 149.875 279.0625 C144.50584905 270.27422396 135.4850708 265.86760146 126.5625 261.375 C125.96286438 261.0702475 125.36322876 260.765495 124.74542236 260.45150757 C47.09433031 221.00026219 -42.94906115 213.20890911 -133.9375 233.3125 Z M-121.625 314.3125 C-122.57648926 314.48394531 -123.52797852 314.65539062 -124.50830078 314.83203125 C-136.56927139 316.79101844 -136.56927139 316.79101844 -145.625 324.3125 C-148.38806582 328.71821319 -148.90948559 332.3741864 -148.125 337.5 C-146.66278391 343.31320054 -143.7660371 345.81875319 -138.9375 349.1875 C-131.24156304 351.80121444 -122.22148297 348.68133143 -114.5 347 C-93.99012995 342.72450974 -72.58645336 339.67965249 -51.625 339.3125 C-50.58875488 339.29203613 -49.55250977 339.27157227 -48.48486328 339.25048828 C4.18853256 338.36442115 49.20873315 350.05128201 95.81323242 374.05664062 C100.21072354 376.21242966 103.48788861 376.71975928 108.375 376.3125 C113.22117297 374.63303296 116.43311943 371.89565235 118.71875 367.3046875 C120.3176918 362.45075703 119.91268407 357.99276273 118.375 353.1875 C112.7677035 345.12701128 104.44756761 340.79849828 95.875 336.4375 C95.28607971 336.13568817 94.69715942 335.83387634 94.09039307 335.5229187 C26.98807123 301.26152522 -49.09719084 301.01055009 -121.625 314.3125 Z " fill="#000000" transform="translate(255.625,-0.3125)"/>
</svg>
